<svg width="14" height="16" viewBox="0 0 14 16" fill="none" xmlns="http://www.w3.org/2000/svg">
<path d="M8.49968 1.33337H4.66263C4.54298 1.33337 4.48316 1.33337 4.43034 1.35159C4.38363 1.3677 4.34109 1.394 4.30579 1.42857C4.26587 1.46766 4.23912 1.52117 4.18561 1.62819L1.38561 7.22819C1.25782 7.48377 1.19393 7.61155 1.20927 7.71543C1.22268 7.80613 1.27285 7.88731 1.34798 7.93986C1.43403 8.00004 1.5769 8.00004 1.86264 8.00004H5.99968L3.99968 14.6667L12.1284 6.23691C12.4027 5.95251 12.5398 5.81031 12.5478 5.68863C12.5548 5.58301 12.5111 5.48036 12.4303 5.41206C12.3371 5.33337 12.1396 5.33337 11.7445 5.33337H6.99968L8.49968 1.33337Z" stroke="#FAC515" stroke-width="1.5" stroke-linecap="round" stroke-linejoin="round"/>
</svg>
