<?xml version="1.0" encoding="utf-8"?>
<!-- Uploaded to: SVG Repo, www.svgrepo.com, Generator: SVG Repo Mixer Tools -->
<svg width="800px" height="800px" viewBox="0 0 1024 1024" class="icon"  version="1.1" xmlns="http://www.w3.org/2000/svg"><path d="M732.1 399.3C534.6 356 696.5 82.1 425.9 104.8s-527.2 645.8-46.8 791.7 728-415 353-497.2z" fill="#464BD8" /><path d="M716.5 752.4c-3.4 0-6.8-0.4-10.3-1.3-28.4-7.2-48.9-33.6-70.6-61.5-25.9-33.3-52.7-67.7-96-78.7-11.9-3-23.1-4.5-34.2-4.5-33.5 0-58.6 14-82.9 27.5-23.3 13-45.3 25.2-73 25.2-7.7 0-15.6-1-23.5-3-15.4-3.9-40.2-18.5-33.4-72.9 5.6-45 32.4-105.2 68.1-153.3 24.2-32.6 73.3-87.3 129.4-87.3 6.7 0 13.4 0.8 19.8 2.4 1.2 0.3 2.3 0.9 3.3 1.6 47.4 36.1 80.1 49.5 120.6 49.5 15.1 0 31.7-2 50.6-6a9.08 9.08 0 0 1 4.2 0.1c17.5 4.4 33.1 17.1 46.4 37.6 11.4 17.7 20.9 40.7 28.1 68.4 13.2 50.5 17.5 113 11.3 163.2-7.5 60-28 93-57.9 93z" fill="#FFFFFF" /><path d="M490.2 351.9c5.9 0 11.7 0.7 17.5 2.2 45.3 34.5 80.6 51.4 126.2 51.4 16 0 33.2-2.1 52.5-6.2 95.8 24.2 109.1 343.9 30.1 343.9-2.6 0-5.2-0.3-8-1C652.3 728 626.1 623.3 541.8 602c-13.2-3.3-25.3-4.8-36.4-4.8-67.7 0-102.3 52.8-155.9 52.8-6.8 0-13.8-0.8-21.3-2.7-85.5-21.8 45.4-295.4 162-295.4m-0.1-18.5c-60.1 0-111.5 57-136.8 91-18 24.2-34 51.7-46.4 79.3-12.5 28.1-20.6 55.2-23.5 78.4-2.5 19.9-1.1 36.9 4.1 50.4 6.6 17.1 19.1 28.4 36.2 32.7 8.6 2.2 17.3 3.3 25.8 3.3 30 0 54.2-13.4 77.5-26.4 24.3-13.6 47.3-26.4 78.4-26.4 10.3 0 20.7 1.4 31.9 4.2 40.2 10.2 66 43.3 91 75.4 22.7 29.2 44.2 56.8 75.7 64.8 4.2 1.1 8.4 1.6 12.5 1.6 20.4 0 56.1-13.1 67.1-101.1 3.1-25.1 3.7-53.6 1.8-82.5-2-29.3-6.6-58.5-13.3-84.2-7.5-28.7-17.4-52.6-29.3-71-14.6-22.6-32.1-36.6-51.9-41.6a17.4 17.4 0 0 0-8.3-0.2c-18.3 3.9-34.2 5.8-48.7 5.8-38.3 0-69.4-12.9-115-47.6-2-1.5-4.3-2.6-6.7-3.2-7.1-1.8-14.5-2.7-22.1-2.7v18.5-18.5c0.1 0 0 0 0 0z" fill="#151B28" /><path d="M708.5 742.1c-56.2-14.2-82.3-118.9-166.6-140.2-103.4-26.2-137.2 64.6-213.6 45.3-9-2.3-15.6-7.3-20.1-14.6 16.4-94.2 118-244 204.6-222.1 61.1 46.5 104.1 61 178.7 45.2 40 10.1 65.7 71.8 76.1 140.3 2.8 82.4-16.5 156.9-59.1 146.1z" fill="#2AEFC8" /><path d="M708.5 742.1c-56.2-14.2-82.3-118.9-166.6-140.2-103.4-26.2-137.2 64.6-213.6 45.3-9-2.3-15.6-7.3-20.1-14.6 16.4-94.2 118-244 204.6-222.1 61.1 46.5 104.1 61 178.7 45.2 40 10.1 65.7 71.8 76.1 140.3 2.8 82.4-16.5 156.9-59.1 146.1z" fill="#2AEFC8" /><path d="M621.9 503.7c-8.4-4.5-10.6-14.7-5-22.8 4.2-7.3 14.7-10.6 22.8-5 8.4 4.5 10.6 14.7 5 22.8-4.2 7.3-14.4 9.6-22.8 5z" fill="#151B28" /><path d="M655 538.4c-4.2 7.3-14.7 10.6-22.8 5-8.4-4.5-10.6-14.7-5-22.8 4.2-7.3 14.7-10.6 22.8-5 7 5.4 10.4 15.8 5 22.8z m11.9-37.6c-8.4-4.5-10.6-14.7-5-22.8 4.2-7.3 14.7-10.6 22.8-5 8.4 4.5 10.6 14.7 5 22.8-5.4 7-15.5 9.2-22.8 5z" fill="" /><path d="M700.6 538c-4.2 7.3-14.7 10.6-22.8 5-8.4-4.5-10.6-14.7-5-22.8 4.2-7.3 14.7-10.6 22.8-5 7.3 4.2 9.5 14.4 5 22.8z" fill="#151B28" /><path d="M489 466.6m-40.4 0a40.4 40.4 0 1 0 80.8 0 40.4 40.4 0 1 0-80.8 0Z" fill="#FFFFFF" /><path d="M495.8 477.2m-38.6 0a38.6 38.6 0 1 0 77.2 0 38.6 38.6 0 1 0-77.2 0Z" fill="#514DDF" /><path d="M503.7 408.1c-32.6-8.2-65 11-73.2 43.6-8.3 32.7 11.1 65 43.7 73.3 31.5 8 65-11 73.3-43.7 8.2-32.6-11.1-64.9-43.8-73.2z m-23.5 93.3c-20.2-5.1-32-24.8-26.9-45 5.1-20.3 24.8-32 45-26.9 19.2 4.8 32.1 24.8 26.9 45-5 20.3-24.8 32-45 26.9z" fill="" /><path d="M594.3 361.4c-4.8 0-8.8-3.7-9.2-8.5l-3.6-43.5a58.86 58.86 0 0 1 53.9-63.5 40.36 40.36 0 0 0 36.9-43.6l-5-60.7a9.3 9.3 0 0 1 8.5-10 9.3 9.3 0 0 1 10 8.5l5 60.7a58.86 58.86 0 0 1-53.9 63.5c-10.7 0.9-20.5 5.9-27.5 14.1s-10.3 18.7-9.4 29.4l3.6 43.5a9.3 9.3 0 0 1-8.5 10c-0.2 0.1-0.5 0.1-0.8 0.1z" fill="#151B28" /></svg>