<svg width="10" height="10" viewBox="0 0 10 10" fill="none" xmlns="http://www.w3.org/2000/svg">
<path id="Icon" d="M8.55545 9C8.55545 8.37975 8.55545 8.06962 8.4789 7.81727C8.30654 7.24909 7.86191 6.80446 7.29373 6.6321C7.04138 6.55555 6.73125 6.55555 6.111 6.55555H3.88878C3.26853 6.55555 2.9584 6.55555 2.70605 6.6321C2.13787 6.80446 1.69324 7.24909 1.52089 7.81727C1.44434 8.06962 1.44434 8.37975 1.44434 9M6.99989 3C6.99989 4.10457 6.10446 5 4.99989 5C3.89532 5 2.99989 4.10457 2.99989 3C2.99989 1.89543 3.89532 1 4.99989 1C6.10446 1 6.99989 1.89543 6.99989 3Z" stroke="#7F56D9" stroke-width="1.33333" stroke-linecap="round" stroke-linejoin="round"/>
</svg>
