<svg width="12" height="12" viewBox="0 0 12 12" fill="none" xmlns="http://www.w3.org/2000/svg">
<g id="users-03" clip-path="url(#clip0_413_3707)">
<path id="Icon" d="M8.99992 7.91844C9.72787 8.28413 10.352 8.87098 10.8075 9.60481C10.8978 9.75014 10.9429 9.8228 10.9585 9.92342C10.9901 10.1279 10.8503 10.3793 10.6599 10.4602C10.5662 10.5 10.4608 10.5 10.2499 10.5M7.99992 5.76612C8.74078 5.39794 9.24992 4.63343 9.24992 3.75C9.24992 2.86657 8.74078 2.10206 7.99992 1.73388M6.99992 3.75C6.99992 4.99264 5.99256 6 4.74992 6C3.50728 6 2.49992 4.99264 2.49992 3.75C2.49992 2.50736 3.50728 1.5 4.74992 1.5C5.99256 1.5 6.99992 2.50736 6.99992 3.75ZM1.27953 9.46917C2.07669 8.27228 3.3346 7.5 4.74992 7.5C6.16523 7.5 7.42315 8.27228 8.2203 9.46917C8.39494 9.73138 8.48225 9.86248 8.4722 10.03C8.46437 10.1604 8.37889 10.32 8.2747 10.3988C8.14088 10.5 7.95683 10.5 7.58874 10.5H1.9111C1.543 10.5 1.35896 10.5 1.22514 10.3988C1.12094 10.32 1.03546 10.1604 1.02764 10.03C1.01758 9.86248 1.1049 9.73138 1.27953 9.46917Z" stroke="white" stroke-width="1.5" stroke-linecap="round" stroke-linejoin="round"/>
</g>
<defs>
<clipPath id="clip0_413_3707">
<rect width="12" height="12" fill="white"/>
</clipPath>
</defs>
</svg>
