<svg width="14" height="14" viewBox="0 0 14 14" fill="none" xmlns="http://www.w3.org/2000/svg">
<g id="copy-01" clip-path="url(#clip0_31_4063)">
<path id="Icon" d="M2.91675 8.74996C2.37315 8.74996 2.10135 8.74996 1.88695 8.66115C1.60108 8.54274 1.37396 8.31562 1.25556 8.02976C1.16675 7.81536 1.16675 7.54356 1.16675 6.99996V3.03329C1.16675 2.3799 1.16675 2.0532 1.29391 1.80364C1.40576 1.58411 1.58424 1.40564 1.80376 1.29379C2.05332 1.16663 2.38002 1.16663 3.03341 1.16663H7.00008C7.54368 1.16663 7.81548 1.16663 8.02988 1.25543C8.31574 1.37384 8.54286 1.60096 8.66127 1.88683C8.75008 2.10123 8.75008 2.37303 8.75008 2.91663M7.11675 12.8333H10.9667C11.6201 12.8333 11.9468 12.8333 12.1964 12.7061C12.4159 12.5943 12.5944 12.4158 12.7063 12.1963C12.8334 11.9467 12.8334 11.62 12.8334 10.9666V7.11663C12.8334 6.46323 12.8334 6.13653 12.7063 5.88697C12.5944 5.66745 12.4159 5.48897 12.1964 5.37712C11.9468 5.24996 11.6201 5.24996 10.9667 5.24996H7.11675C6.46335 5.24996 6.13666 5.24996 5.88709 5.37712C5.66757 5.48897 5.48909 5.66745 5.37724 5.88697C5.25008 6.13653 5.25008 6.46323 5.25008 7.11663V10.9666C5.25008 11.62 5.25008 11.9467 5.37724 12.1963C5.48909 12.4158 5.66757 12.5943 5.88709 12.7061C6.13666 12.8333 6.46335 12.8333 7.11675 12.8333Z" stroke="#7F56D9" stroke-width="2" stroke-linecap="round" stroke-linejoin="round"/>
</g>
<defs>
<clipPath id="clip0_31_4063">
<rect width="14" height="14" fill="white"/>
</clipPath>
</defs>
</svg>
