<svg width="16" height="14" viewBox="0 0 16 14" fill="none" xmlns="http://www.w3.org/2000/svg">
<path d="M10.2078 5.66668C11.12 5.95089 11.9747 6.41274 12.7198 7.03334M15.0531 4.66665C13.1048 2.94929 10.5969 2.00175 7.99978 2.00175C7.59644 2.00175 7.19526 2.0246 6.79798 2.06964M5.68636 9.40669C6.36316 8.92585 7.17281 8.66752 8.00303 8.66752C8.83324 8.66752 9.64289 8.92585 10.3197 9.40669M7.99984 12H8.0065M0.79541 4.80051C1.68448 3.9858 2.7121 3.31983 3.83884 2.84204M3.15446 7.16198C4.08606 6.34132 5.22765 5.75344 6.48827 5.48929M10.4654 9.51674C9.78598 8.98418 8.92995 8.66667 7.99976 8.66667C7.0555 8.66667 6.18765 8.99386 5.50342 9.54105M1.99984 1L13.9998 13" stroke="#F04438" stroke-width="2" stroke-linecap="round" stroke-linejoin="round"/>
</svg>
